<svg xmlns="http://www.w3.org/2000/svg" viewBox="0 0 214 214">
  <path fill="#073f41" d="M0 0h214v214H0V0z"/>
  <path fill="#fcfdfd" d="M0 0h214v214H0V0zm150 5-4 5-5 3V6h-4l-2 5h-12l-14 3h-9c-23 1-44 14-60 31-8 9-14 19-18 30l-1 3c-4 11-6 24-5 36v3c2 15 5 33 16 44l1 8c1 10 4 17 12 24 7 6 15 10 25 10l4 1a4726 4726 0 0 0 23 0c29 1 52-8 73-27 19-20 26-47 25-73 0-19-6-39-18-53l-3-2c-4-3-5-7-7-11-4-9-9-15-17-21l-1-2 3-1 5-2V7c-3-2-3-2-7-2z"/>
  <path fill="#083438" d="m120 20-4 7c-5 5-7 11-9 17l-1 3a2170 2170 0 0 0-14 43c-5 16-10 31-20 44l-4 7-4 9h-3v3l-4 10h2v2h2l3-10h2l1-5h3l1-2c2-5 5-10 9-14a148 148 0 0 0 21-46l9-33c4-13 10-22 20-30l9-3v18l1-2h2v-4l3-6 4-1c4 5 6 9 7 15l1 4v2h-2l-7 2c-2 2-2 2-2 5h4l2-1 5-2v11h-8l-4 4v5l7 3v5l-12 1c-2 2-2 4-2 7l2 4v7l-5 7h-2a702 702 0 0 0-1 8v2l4 1h3c2-3 3-6 3-10 3 4 2 5 2 10l-2 9-1 2-2 6h-2v4h-2v2l-3 5-3-1 2-2 1-3-1-2-6-1 2-1 4-3v-5l-6-2-1 10c0 6 0 10-3 15h-2l-10-2v13h10v5h-2l-1 6h-3v2h-2l-1 3h-2l-1-7c-4 2-4 2-6 5-3 2-5 2-8 2v10h6v2l-5 2-3 1c-8 3-18 4-26 1l-6-4 1-6 6-1v-2h-7l-1-7v-4l-2 1-1 5-1 8-5 1c-4-2-6-5-7-10-3-12 1-23 7-34l5-4c4-4 5-6 7-11l3-5 6-12 2-5 5-11 1-2 5-20c4-18 9-34 25-45 8-5 8-5 12-5z"/>
  <path fill="#5cb18b" d="M170 60c4 1 4 3 6 6a92 92 0 0 1 6 70v2c-8 20-21 39-41 49-10 4-21 8-33 8l8-9c4-2 6-6 9-10 4-4 7-8 12-11v-2c-2-8-2-8 1-12l2-2h2l1-3 4-10c10-24 17-50 23-76z"/>
  <path fill="#59ae8a" d="m91 27-5 8c-8 11-11 26-13 39-1 6-3 9-6 14-2 3-2 6-3 10-1 7-4 12-8 18l-1 3-5 6c-6 5-12 13-13 21l-4-2-3-7-1-3a250 250 0 0 1-2-6c-5-22-1-44 11-63l11-15 2-2c9-11 25-21 40-21z"/>
  <path fill="#054342" d="m149 27 5 1c8 10 9 23 8 36l-5 24h-2v8l1 7h2v-2l1-3v-3l4-6a183 183 0 0 1-14 45c-6 15-6 15-10 18-2 4-2 4-1 8v5l-5 4-10 11-13 13h-2l2-5-3 1h-3l-4 1v2c-7 5-15 4-23 4h-9l-5-2 1-3 2 1c8 4 19 1 28-2l5-1v-2h-6l-1-10 4-1 8-6h3l1 7 1-1 4-2v-2h3l1-6h2v-5h-10v-13c5 0 8 0 12 2v-3l2-4v-9c0-4 0-6 2-9h5l2 4c0 4-1 5-4 7l5 1-2 6 1 1 3-6h2v-4h2v-2l3-12 1-10-1 3-3 5h-6c-2-2-2-2-2-5 0-5 2-7 6-11l3-4-2-7v-8l2-3h11l1-5h-2l-6-3c1-7 1-7 3-9h10l-1-10-2 2h-8c1-4 2-5 5-7h6l-1-4-3-8-4-7v-2z"/>
  <path fill="#abbf08" d="M147 27h2c4 5 6 9 7 15l1 4v2h-2l-7 2c-2 2-2 2-2 5h4l2-1 5-2v11h-8l-4 4v5l7 3v5l-12 1c-2 2-2 4-2 7l2 4v7l-5 7h-2a702 702 0 0 0-1 8v2l4 1h3c2-3 3-6 3-10 3 4 2 5 2 10l-2 9-1 2-2 6h-2v4h-2v2l-3 5-3-1 2-2 1-3-1-2-6-1 2-1 4-3v-5l-6-2-1 10c0 6 0 10-3 15h-2l-10-2v13h10v5h-2l-1 6h-3v2h-2l-1 3h-2l-1-7c-4 2-4 2-6 5-3 2-5 2-8 2v10h6v2l-5 2-3 1c-5 2-10 2-16 2h-4c-3 0-5-1-8-3l-1-6 3-2c8-3 15-7 21-13l2-2c7-7 12-16 18-25l1-2c10-16 17-34 23-52l1-3a448 448 0 0 0 16-59z"/>
  <path fill="#053b42" d="M150 5c5 0 5 0 7 2v5l-8 3 8 8c6 5 10 12 13 20 1 3 2 4 5 6l3 3-1 7 3 5-1 4h-3l-3-5-3-3v3l-3 13v2l-4 11-4 12-1 2-3 1-1-5v-3l1-8h2v-4l3-11c2-15 2-30-5-43-4-3-6-2-10-1l-3 9h-2l-1 3h-1l1-19c-11 4-19 10-24 21l-6 20a508 508 0 0 1-10 32c-5 16-12 30-21 44l-2 3c-6 8-6 8-9 9l-1 4h-2v3l-3 7-5-1 5-14h3v-2l4-8 1-3 5-8c9-14 14-29 19-45l5-14 5-17 1-3 2-7c2-7 5-12 10-17l4-6-6 3-3 1-6 4c-2 2-2 2-5 2v-2h3v-3l8-3 1-2c5-3 5-3 8-3l2 1v-2h3v-2h-3v-2l13-1 2-5h4v7c3-1 4-2 6-5l3-3z"/>
  <path fill="#c4da12" d="m137 23-3 21h-2v3h-2l-1-6h-10v11l6 1h4v2l-3 14-4 1-1-3-7-1v2l-4 12 10 2-1 7h-2l-7-1h-4c-2 4-2 6-1 10l2 3 8-1a311 311 0 0 1-2 8l-1 2-3 1v2c2 8-1 12-5 18l-6 9-10 16-2 3c-3 5-7 9-12 12l-2 2c-3 2-6 4-11 4 0-6 0-11 3-17l1-2c4-10 10-18 16-26 14-19 20-43 26-66l1-3 2-8c4-12 9-23 20-31l7-1z"/>
  <path fill="#c4dd21" d="m120 20-4 7c-5 5-7 11-9 17l-1 3a2170 2170 0 0 0-14 43c-5 17-12 33-23 47l-4 8-2 3-7-4h-2l-2 6h5v7l-2 5-3 12v7c-5-1-5-1-7-3-4-7-4-14-3-22 2-9 7-16 14-22l5-9 3-5 6-12 2-5 5-11 1-2 5-20c4-18 9-34 25-45 8-5 8-5 12-5z"/>
  <path fill="#0e3820" d="m120 22 2 1-1 1-2 2-2 2-2 6-3 3c-2 3-2 6-2 10l4-7h2a200766094 200766094 0 0 1-17 55c-5 16-12 30-21 44l-2 3c-6 8-6 8-9 9l-1 4h-2v3l-3 7-5-1 5-14h3v-2l4-8 1-3 5-8c9-14 14-29 19-45l5-14 5-17 1-3 2-7c2-7 5-12 11-18l2-2 1-1z"/>
  <path fill="#cfec6d" d="M120 20c-1 5-4 8-8 11l-6 3-10 14-4 5c-3 4-3 7-3 12-1 9-3 17-7 26l-2 5h-3v2l-3 7-3 12h-2v3c-1 6-6 11-11 15l-4 9-1 3-1 3h5v7l-2 5-3 12v7c-5-1-5-1-7-3-4-7-4-14-3-22 2-9 7-16 14-22l5-9 3-5 6-12 2-5 5-11 1-2 5-20c4-18 9-34 25-45 8-5 8-5 12-5z"/>
  <path fill="#92b12b" d="M154 36c5 4 6 10 6 16 1 14-2 28-7 41l-3 8-1 3a307 307 0 0 0-5 16l-1-10-1 3-3 5h-6c-2-2-2-2-2-5 0-5 2-7 6-11l3-4-2-7v-8l2-3h11l1-5h-2l-6-3c1-7 1-7 3-9h10l-1-10-2 2h-8c1-4 2-5 5-7h6l-1-2v-2l-1-2-1-6z"/>
  <path fill="#bcd50c" d="M85 126h1l-1 8 3 1 5 3v5h2l2-8 4-1c-1 6-5 11-9 16l-5 9c-4 5-8 9-13 12l-2 2c-3 2-6 4-11 4 0-6 0-11 3-17l1-2c3-8 8-15 13-21l6-10 1-1z"/>
  <path fill="#b2c219" d="M147 27h2c4 5 6 9 7 15l1 4v2h-2l-7 2c-2 2-2 2-2 5h4l2-1 5-2v11h-8l-4 4v5l7 3v5l-12 1c-2 2-2 4-2 7l2 4v7c-1 3-2 4-5 5l-7 2 1-9 1-2c0-5 2-9 3-13l2-10 6-20 4-19 2-6z"/>
  <path fill="#b5c816" d="M98 95c4 1 7 2 9 6l8-1a311 311 0 0 1-3 10l-3 1v2c2 7 0 10-3 16l-6 6h-3v2l-2 6h-2l-1-3c-1-3-1-4-5-5l-3-1c1-7 3-12 6-18 4-7 6-14 8-21z"/>
  <path fill="#88a022" d="M125 125h5l2 4c0 4-1 5-4 7l5 1-2 6 1 1 1 2h-2l-1 3-4 6-3 8c-2 10-13 19-22 24h-8l-1-10 4-1 8-6h3l1 7 1-1 4-2v-2h3l1-6h2v-5h-10v-13c5 0 8 0 12 2v-3l2-4v-9c0-4 0-6 2-9z"/>
  <path fill="#b9d22b" d="M119 41h10l1 6h2l1-3c0 6-2 12-4 18l-2 9a253 253 0 0 1-16 47h-2v-7l2-1 2-4 2-6-3 1h-7c-2-3-2-4-2-8l3-6h7l6 2 1-7-10-2 4-14h7l1 4 4-1v-2l2-13h-3c-4 0-4 0-7-2l1-11z"/>
  <path fill="#073f49" d="M122 12v2h3v2h-3v2h-2c-4 0-6 2-9 4l-8 3v3h-3l1 3-5 5-3-1-1-5-2-1 1-2h-2l-12 2c-3 0-3 0-5 2l-1 1-3-1 1-6-2-1 8-3 2-1c8-4 16-5 25-6l20-2z"/>
  <path fill="#bed42a" d="M133 78v9l-5 19 2-2 5-1 2 1-2 1-3 3v6l1 3h6c2-3 3-6 3-10 3 4 2 5 2 10l-2 9-1 2-2 6h-2v4h-2v2l-3 5-3-1 2-2 1-3-1-2-6-1 2-1 4-3v-5l-6-3 2-1 2-5-1-6c-4 3-4 5-5 10l-2 1-1 7-1 3-3-1v3h-2l-3 3-1 3-2 4h-2c1-4 2-7 5-10 10-17 16-38 22-57z"/>
  <path fill="#0c2c1a" d="m120 22 2 1-1 1-2 2-2 2-2 6-3 3c-2 3-2 6-2 10l4-7h2l-1 2-4 15-16 50c-1-4 0-5 1-9v-9l-3 1-1 4-3 6 4-16 2-6 1-3a946 946 0 0 0 6-19l1-3 3-8v-3c3-7 6-12 11-17l2-2 1-1z"/>
  <path fill="#a3c213" d="M94 78c2 6-1 12-3 17l-1 2c-5 15-11 28-21 40l-4 8-2 3c-3 0-4-1-6-3s-2-2-2-5l1-3 3-1 1-2 4-6 4-8 1-3 3-1 1 1h5l1-3 4-5 7-23 4-8z"/>
  <path fill="#0d3115" d="m68 138 1 2-3 6-1 2-1 2h-3v3l-4 10h2v2h2l3-10h2l1-5 2 1-1 3-2 5-1 2c-3 6-4 10-4 16 5-2 10-4 14-8l2 1-8 7 7 1c-2 3-4 3-7 5l-3 1-3 1v6l-4-2 1-6 6-1v-2h-7l-1-7v-4l-2 1-1 5-1 8-5 1c-4-2-6-5-8-10v-14h1v3c1 8 1 8 5 16l5 2v-3c0-7 0-12 3-19l2-8-5-1 1-6 6 1 1 2 3 1 1-2z"/>
  <path fill="#b1c816" d="M126 112h2c2 2 2 4 2 7l-4 5c-2 4-2 7-2 11 0 6 0 10-3 15h-2l-10-2-1 11-2-1v-6h-4v2l-1 3-5 2a1760 1760 0 0 1 4-7l5-7h3l1-2 1-3 1-2 3-3h2v-3h3l1-9 3-1v-3c0-3 1-5 3-7z"/>
  <path fill="#c2d61e" d="m140 60 4 1 1 7v4l7 3v5l-12 1c-2 2-2 4-2 7l2 4v7c-1 3-2 4-5 5l-7 2 1-9 1-2c1-6 2-12 5-18l5-17z"/>
  <path fill="#b7da26" d="M90 74h3c-1 13-5 29-12 40l-1 2c-2 2-2 2-5 2l-4-2c-1-6 2-10 4-15l2-5h3v-2l3-9 1-2c1-3 2-4 5-6l1-3z"/>
  <path fill="#07454e" d="m108 187 2 1-1 2v5l-1 5-3 3a144 144 0 0 1-32 0H63c1-3 2-4 5-6l5-1h5c8-1 15-1 22-4v-2c5-3 5-3 8-3z"/>
  <path fill="#b0c00f" d="M102 152h4l1 6h2v3h10v5h-2l-1 6h-3v2h-2l-1 3h-2l-1-7-2 1-5 3-2-7-6-1v2c-1 3-4 4-7 6l-2-1 2-2 8-9c2-4 4-4 8-5l1-5z"/>
  <path fill="#054743" d="m75 59 1 2 4-1c3 7 2 15 0 22l-5 8-5-1-1 6h-2v2c1 8 1 8-2 12l-7 4 3-7 3-12 3-8c4-5 5-10 6-16v-3l2-8z"/>
  <path fill="#7da11c" d="M154 36c5 4 6 10 6 16 1 11-1 21-4 32h-1l1-10h-7l-5-2c1-7 1-7 3-9h10l-1-10-2 2h-8c1-4 2-5 5-7h6l-1-2v-2l-1-2-1-6z"/>
  <path fill="#ccdc33" d="m51 148 1 2h5v7l-2 5-3 12v7c-5-1-5-1-7-3-3-5-3-9-3-15v-7l2 3 3-1 2-6 2-4z"/>
  <path fill="#aac542" d="M119 41h10l1 6h2l1-3c0 6-2 12-4 18l-3 13-3 8-1-4-4 1 1-2 1-10-6 1v-3h7l1 4 4-1v-2l2-13h-3c-4 0-4 0-7-2l1-11z"/>
  <path fill="#ddeddc" d="M120 20c-1 5-4 8-8 11l-6 3-10 14-4 6c-3 3-3 5-3 9l-3-3c3-15 10-27 23-35 7-5 7-5 11-5z"/>
  <path fill="#a9c641" d="M85 126h1l-1 8 3 1 5 3v5h2l2-8 4-1c-1 6-5 11-9 16l-2 1v-3l-2 1-8-1c-2-2-2-2-2-5v-3l-2 1c1-4 3-7 6-10l1-3 2-2z"/>
  <path fill="#628429" d="M121 162h1c0 3 0 5-2 8-6 7-12 14-21 18l-6-1-1-10 4-1 8-6h3l1 7 1-1 4-2v-2h3v-3l2-1 3-4v-2z"/>
  <path fill="#9cb71c" d="M142 107c3 4 2 5 2 10l-2 9-1 2-2 6h-2v4h-2v2l-3 5-3-1 2-2 1-3-1-2-6-1 2-1 4-3v-5l-4-3h4l1-7h7c2-3 3-6 3-10z"/>
  <path fill="#023a4c" d="m164 63 5 2-2 10v2c-1 6-3 10-6 15a108 108 0 0 0-3 11l-3 1-1-5v-3l1-8h2v-3l5-16 2-6z"/>
  <path fill="#0b361b" d="M137 22h2v18l1-2h2v-4l1-4 3-2c0 9-2 17-5 26h-1l-2-8c-3 3-4 6-5 10l-3 11-3 10-3 3 8-31 5-27z"/>
  <path fill="#b2cb14" d="M92 166h6c2 4 2 6 1 10l-6 1 1 12c-4 1-5 1-9-1-2-3-2-5-2-9l-2-1c1-3 3-5 6-7 4-1 4-1 5-5z"/>
  <path fill="#144011" d="M105 47h1l-3 18-2 6c0 4 0 4-2 6l-2 5v3l-1 2h2l1-2 6-15c2 4 0 8-1 12l-1 2a1135 1135 0 0 1-8 23c-1-4 0-5 1-9v-9l-3 1-1 4-3 6 4-16 2-6 1-3a1140 1140 0 0 0 9-28z"/>
  <path fill="#bad11d" d="M114 52h2c4 2 8 2 13 1v2l-3 14-4 1-1-3h-10v-6l1-3 2-6z"/>
  <path fill="#92b83c" d="M87 151h3c-3 9-8 15-16 20l-2 2c-3 2-6 4-11 4v-9h1v7l4-1 1-2 5-2 1-2h3v-3l-5-1c0-7 0-7 2-10 4 0 6-1 9 2l2 1z"/>
  <path fill="#012a34" d="M93 154h3l-4 7-3 5c-2 5-6 10-11 12h-9l-1-2 2-1 13-13 2-1c3-1 5-4 7-6z"/>
  <path fill="#d2e628" d="m108 70 2 4v6l10 2-1 7h-2l-7-1h-4l-3 8h-3l-1 2c0-7 2-12 5-18h2v-4l1-3 1-3z"/>
  <path fill="#11401f" d="m149 27 5 1c8 10 9 23 8 36l-5 24h-2v4l-2 11h-2v3h-2l3-13v-2l4-11c4-12 6-28 0-40l-6-9-1-4z"/>
  <path fill="#e8f395" d="M66 118v7c-2 5-5 10-9 12l-2 4c-6 16-6 16-10 18l-2 1c-1-8 3-14 7-21l5-5c3-2 4-5 6-9l5-7z"/>
  <path fill="#0d301e" d="M102 133v7l-1 2-2 3-1 2 2 1 1-2h2v-2h2v-2l3-7 3-1c-5 12-13 23-21 33l-1-4 3-4 4-5c-6 3-6 3-10 8l-2-1 6-9 12-19z"/>
  <path fill="#04222d" d="m114 116 3 1-1 6v3l-4 8-4 1v2l-3 7h-2v2h-2l-1 3-3-1 6-15h2v-2h2v-2l3-6 1-2 1-2h2v-3z"/>
  <path fill="#92b31b" d="M125 125h5l2 4c0 4-1 5-4 7l5 1-4 11h-3l-4 4-2-1 2-3c2-6 1-11 1-17l2-6z"/>
  <path fill="#082e15" d="M119 94v8l-1 9h2l1-2 1-3 1-3 3-3-4 14-1 2-1 2-1 2-3 4 1-7h-2l-1 2h-2l-1 3-4 9h-2v2h-2l4-9 4-10 8-20z"/>
  <path fill="#bed110" d="m92 119 2 1-1 1a59 59 0 0 0 0 8l8 2-1 4h-3v2l-2 6h-2l-1-3c-1-3-1-4-5-5l-3-1 2-8h2l1-2 3-5z"/>
  <path fill="#052e30" d="m75 134 2 2-2 4h-2v2l-2 1-1 7-3 1-1 4h-2v3l-3 7-5-1 5-14h3v-2c2-5 4-10 9-13l2-1z"/>
  <path fill="#93a220" d="m111 31-1 2-5 18-1 2-2 7h-1l1-7-3-1v-2h-2c0-7 3-10 7-15 4-4 4-4 7-4z"/>
  <path fill="#03382d" d="M97 88c0 6 0 9-3 14l-1 5-7 16h-4l2-8h3v-2c0-8 3-16 6-23l4-2z"/>
  <path fill="#052b33" d="M128 81v11l-1 2c-1 7-3 12-7 18l-3-1 4-18h2v-9l2 1 3-4z"/>
  <path fill="#aac64e" d="M117 38c2 3 2 5 2 9v5l6 2v1c-4 0-7-1-11-3l-3 15h3l-1 2-2 9h-1l-2-7-2 9h-2l7-25v-3c1-5 3-9 6-14z"/>
  <path fill="#a7c125" d="m82 174 1 3c-2 3-2 3-5 4l-1 1c-4 4-8 4-12 4l1 4c6 4 15 2 22 1v-2h6v-2h5v2l-5 2-3 1c-5 2-10 2-16 2h-4c-3 0-5-1-8-3l-1-6 3-2 5-2 2-1c4-2 7-3 10-6z"/>
  <path fill="#9cb815" d="M107 118h3c-1 6-4 12-9 16v-3l-8-1 2-8 6-2 6-2z"/>
  <path fill="#093337" d="M150 5c5 0 5 0 7 2v5l-10 5-2-2-2 1c-3 0-4 0-7-2l1-3 1-5h3v7c3-1 4-2 6-5z"/>
  <path fill="#03383b" d="m70 88 5 1 1 5h-2v3l-4 9h-3l-1 7h-2l-6 2c1-3 2-4 5-6 2-3 3-4 3-8l1-3v-3h2v-3l1-4z"/>
  <path fill="#23430c" d="m68 138 1 2-3 6-1 2-1 2h-3v3c-1 4-3 9-6 12l-1 8v2l-1 5h-1c0-8 0-14 3-21l2-8-5-1 1-6 6 1 1 2 3 1 1-2 4-8z"/>
  <path fill="#a6c03e" d="M147 27h2l3 3 1 2 1 4-1 2-3-2v-4h-2v4l-1 3-1 3-1 5-3 11-6 21-2-1 7-26 4-19 2-6z"/>
  <path fill="#c7e509" d="m78 139 1 6 1 2 6 1h4v3h-3l-2 6c-4 0-4-1-7-3v-2h-6c1-5 3-9 6-13z"/>
  <path fill="#092530" d="M103 171h2v8l-2 1-3 5-3 1c-3 0-3 0-5-2v-7l2-1h2l2-1 5-4z"/>
  <path fill="#0d3c22" d="m75 169 2 1-8 7 7 1c-2 3-4 3-7 5l-3 1-3 1v6l-4-2 1-6 6-1v-2h-7l-1-8 3-1v6c5-2 10-4 14-8z"/>
  <path fill="#0b1e0d" d="M140 106c2 2 2 2 2 5s0 5-3 7h-6c-2-2-2-2-2-5s0-5 2-7h7z"/>
  <path fill="#94a805" d="M119 161v5h-2l-1 6h-3v2h-2l-1 3h-2l-1-7-3-1c3-4 5-5 10-6l5-2z"/>
  <path fill="#9fcb46" d="M94 78c1 4 0 6-1 9l-1 2a650 650 0 0 1-13 33l-2 1-1-2-4-1-1-4 7 1 1-3 4-5 7-23 4-8z"/>
  <path fill="#0e502f" d="m101 186 2 1c-3 5-4 6-9 8l-17 1h-9l-5-2 1-3 2 1c8 4 20 1 28-2l7-4z"/>
  <path fill="#062f2a" d="M108 58h2l-1 4v3l-2 5h-2v2l-3 6-1 3-3 6h-2l1-5v-3l3-4 1-5c1-4 1-6 5-9l2-3z"/>
  <path fill="#1b3308" d="m140 80 7 1c2 3 1 5 1 8l-3 3-7-1-1-5 3-6z"/>
  <path fill="#9fb41e" d="M148 93h1l-1 10h-2l-1 5-1-3h-8l1-3 4-8 7 1v-2z"/>
  <path fill="#043a32" d="M163 169h2v3h-2l-1 2c-1 3-3 4-6 6l-6 9h-2v-2l-6 4-3-2 8-7c6-3 11-8 16-13z"/>
  <path fill="#b1d144" d="m137 23-3 21h-2v3h-2l1-4 3-16c-7 2-10 6-14 11l-2-1c11-14 11-14 19-14z"/>
  <path fill="#041a37" d="M119 42h8l1 4c0 4 0 4-2 7l-8-1 1-10z"/>
  <path fill="#044b3d" d="M187 111h1v3l2 6-2 1-1 7c0 8-2 13-7 19l-3 2 1-4 1-2 2-6c3-7 4-14 5-22l1-4z"/>
  <path fill="#a1bd43" d="M120 115h1c0 6 0 12-2 18l-3-1v3h-2l-3 3-1 3-2 4h-2l5-10 9-20z"/>
  <path fill="#16340c" d="M74 106c5 1 5 1 7 3 0 6 0 6-3 9h-5c-2-2-2-2-2-5s1-5 3-7z"/>
  <path fill="#b9d113" d="M87 172v3l3 2-1 9 4-1 1 4c-4 1-5 1-9-1-2-3-2-5-2-9l-2-1c1-3 2-4 4-5l2-1z"/>
  <path fill="#203b10" d="M151 63h3v7l-2 4-8-2c1-9 1-9 7-9z"/>
  <path fill="#163306" d="M120 68v10l-2 2-6-1-1-7c3-4 5-4 9-4z"/>
  <path fill="#8ca832" d="M127 124h7c2 3 1 6 0 10h2v-2h2v-3h2l-1 5h-2v4h-2v2l-3 5-3-1 2-2 1-3-1-2-6-1 2-1 4-3v-5l-4-3z"/>
  <path fill="#1e2d03" d="m106 87 7 1v8c-2 2-2 2-5 2l-4-2c0-4 0-6 2-9z"/>
  <path fill="#6d9532" d="M158 44c2 4 2 8 2 12v2c0 9-2 18-4 26h-1l1-10-4-1 1-1 1-4v-4l3 4 1-24z"/>
  <path fill="#0b1d14" d="m83 137 8 2v6c-2 2-2 2-5 2l-5-1v-7z"/>
  <path fill="#162706" d="M91 59c5 1 5 1 7 3 0 6 0 6-3 9l-6-1c0-8 0-8 2-11z"/>
  <path fill="#bad569" d="m42 156 2 3 2-1v10c0 4 0 6 2 9l2 1v-6l1-3c0-3 0-3 2-5l-1 17c-5-1-5-1-7-3-3-5-3-9-3-15v-7z"/>
  <path fill="#508717" d="m132 144 1 2h-2l-1 3-4 6-3 11c-2-4-4-9-3-14 3-4 7-6 12-8z"/>
  <path fill="#053241" d="m119 25 2 1v3h-2l-1 7h-2v4h-2l-1 3c-1 3-1 3-4 5-1-6 1-9 4-14h2v-3c1-3 1-4 4-6z"/>
  <path fill="#154b28" d="M148 106c2 7-1 16-4 22l-5 10h-2v-4h2v-2c1-6 3-10 6-16l3-10z"/>
  <path fill="#c5d817" d="M126 112h2c2 2 2 4 2 7l-4 5-3 1-2 7-2-2 1-7 3-1v-3c0-3 1-5 3-7z"/>
  <path fill="#1d3211" d="m116 150 2 4c-1 4-4 5-7 7h-2l-1-10 8-1z"/>
  <path fill="#c7db0d" d="m140 60 4 1 1 2-1 2h-2v2c0 6-1 9-4 14h-2c0-5 0-9 2-14l1-4 1-3z"/>
  <path fill="#d3ebc5" d="M120 20c-1 5-4 8-8 11l-5 1 4-6h-2v2l-3 1-2 4-4-2c14-11 14-11 20-11z"/>
  <path fill="#073848" d="m122 172 3 1-2 7-2 1-2-1-1 2c-1 2-2 4-5 5l-4-1a1026 1026 0 0 1 9-11h3l1-3z"/>
  <path fill="#64b89a" d="M28 123h1l4 14 7-1-3 10-4-2-3-7-1-3-1-11z"/>
  <path fill="#cadd09" d="m108 77 2 1v2l10 2-1 7-4-1-1-3-8-1v-3h2v-4z"/>
  <path fill="#184214" d="M139 54a412216452 412216452 0 0 0-9 36h-1c0-4 1-7 3-11l1-12 1-1v-3l3-7h2v-2z"/>
  <path fill="#9eb910" d="M85 83h2c2 6 0 10-3 16h-4c-1-6 2-11 5-16z"/>
  <path fill="#0b1e04" d="M125 125h5l2 4-1 5-7 1-1-4 2-6z"/>
  <path fill="#a1c03c" d="M133 78v9l-1 3-1 3-3 12c-1 4-2 7-5 10h-2l8-24 1-4 3-9z"/>
  <path fill="#c4cb1a" d="m96 46 1 4h2l3 3-1 7-10-2v-2l3-2 1-6z"/>
  <path fill="#70bb94" d="m91 27-7 10-5-3-1-5 13-2z"/>
  <path fill="#b4d010" d="m66 134 1 4-2 1-2 5c-4 0-5 0-8-2l2-6 6-1 3-1z"/>
  <path fill="#a4c042" d="M98 95h1v8c0 3-1 4-3 6l-1 5-7 12h-2l4-10c4-7 6-14 8-21z"/>
  <path fill="#d8edc4" d="M66 118v7c-3 6-5 10-10 13l-3 1-2-1 3-2 7-11 5-7z"/>
  <path fill="#03362d" d="m139 22 3 6 1-1c3-2 4-2 7-2l1 2-3 1c-3 1-4 2-5 4l-1 6h-2l-1 3h-1l1-19z"/>
  <path fill="#022e3e" d="M93 154h3c-1 4-3 6-6 9l-1 4-6 1c0-3 0-5 3-8l6-5z"/>
  <path fill="#134a1e" d="m86 54 2 1-1 4-1 2a3697 3697 0 0 1-4 17l-1 3a1162 1162 0 0 0-5 12c0-4 0-7 2-11l2-8 5-17 1-3z"/>
  <path fill="#1a3e0f" d="M133 44h1c0 8-1 15-4 23l-3 10-3 3 9-36z"/>
  <path fill="#c6da0c" d="m71 164 5 1v3h-3l-1 3-5 1-1 3h-4c0-7 0-7 2-9l1-1 2 1v4l5-3-1-3z"/>
  <path fill="#04332e" d="M96 143c2 3 1 6 0 9h2l-1 3h-2c-4 1-5 3-8 6h-3a140 140 0 0 1 12-18z"/>
  <path fill="#0e2f12" d="M105 47h1l-3 18-1 6-1 4-3 2c0-7 1-13 4-19l1-4 2-7z"/>
  <path fill="#cde441" d="M111 58v9h3l-1 2-2 9h-1l-2-7-2 9h-2l2-8v-2l3-9h2v-3z"/>
  <path fill="#022329" d="M61 150h2l2 7-4 8-5-1 5-14z"/>
  <path fill="#9abe29" d="M71 129h3l-11 19c-3 0-4-1-6-4l-2-2 8 1 2-5h2v-4h3l1-5z"/>
  <path fill="#275155" d="m122 12-1 2-4-1v2h-2l-3 1h-3l-4 2h-7a1607613551 1607613551 0 0 1-12-1v-1l16-2 20-2z"/>
  <path fill="#0e4020" d="M41 160h1v3c1 8 1 8 5 16l5 1 2-8h1v7l-1 4-5 1c-4-2-6-5-8-10v-14z"/>
  <path fill="#accc36" d="m79 135 3 1-1 10h11l-1 5-1-3-2 1-8-1c-2-2-2-2-2-5v-3l-2 1 3-6z"/>
  <path fill="#123e1d" d="M74 94h2c-1 7-5 13-8 20l-2 3-3 4 4-15h3l4-12z"/>
  <path fill="#10361d" d="m120 22 2 1-1 1-2 2-2 2-2 6-3 3-2 5h-2l-1 4v-5c3-8 6-13 13-19z"/>
  <path fill="#b2d778" d="M75 96h1l-4 14-1 7h-2v3l-1 4-2 1c-1-9 3-17 8-25l1-4z"/>
  <path fill="#abc325" d="m51 148 1 2h5v7l-3 7h-1v-9h-3l1-7z"/>
  <path fill="#b8cc39" d="m105 145 1 4h3l-1 10-2-1v-6h-4v2l-1 3-5 2a1760 1760 0 0 1 9-14z"/>
  <path fill="#e2f281" d="M81 78c2 2 2 2 2 6l-3 12h-3l-1 3c-1-5 1-9 3-14l2-7z"/>
  <path fill="#a8b21e" d="M104 41c0 7 0 13-2 19h-1l1-7-3-1v-2h-2c0-3 3-9 7-9z"/>
  <path fill="#22490d" d="M114 106h1v8h-2v2c-1 6-3 10-6 15h-2v2h-2l4-9 5-11v-2l2-5z"/>
  <path fill="#85ac36" d="M148 100h2l-1 7-1 3-4 10-1-6c0-5-1-6-4-9h5l1 1 1-3h2v-3z"/>
  <path fill="#dced31" d="m114 52 9 3c-3 4-6 6-11 7 0-7 0-7 2-10z"/>
  <path fill="#7ea733" d="M94 187h5v2l-5 2-3 1c-5 2-11 2-16 2h-4c-3 0-5-1-7-3l2 1 22-1v-2h6v-2z"/>
  <path fill="#032538" d="M107 135c0 4 0 6-2 9h-2v2h-2l-1 3-3-1c4-13 4-13 10-13z"/>
  <path fill="#092f3a" d="m157 8-1 5-9 4-1-5c3-5 6-4 11-4z"/>
  <path fill="#a0c236" d="M119 90v7l-2 4-6 17h-2v-7l2-1 2-7 6-13z"/>
  <path fill="#032827" d="M121 93h1l-2 10 3 1-3 8-3-1 4-18z"/>
  <path fill="#053838" d="m137 45 3 3-1 8h-2v2h-3c0-5 0-8 3-13z"/>
  <path fill="#05473a" d="m174 154 2 1c-4 10-4 10-8 14l-2 4-2-4c1-4 4-7 6-10l2-3 2-2z"/>
  <path fill="#214543" d="m22 75 2 1-1 8-1 2-3 13-2-1c0-8 2-15 5-23z"/>
  <path fill="#153b23" d="M83 162v6l6-1-11 11h-2v-2l4-1 1-7-4 1 6-7z"/>
  <path fill="#152b14" d="M76 155h3l1 5-2 3-6-2v-5l4-1z"/>
  <path fill="#e6f0b3" d="m95 44 3 1-2 2c-5 7-5 7-7 16l-3-3 1-5 1-3 3-5v2h2v-2h2v-3z"/>
  <path fill="#163a38" d="M49 37c0 4-1 4-3 6l-5 8h-3l-1 3-3 4-2-2 17-19z"/>
  <path fill="#b2cc19" d="m143 56 7 1v2l3 2-3 1-6 5v-5l-3-1 2-5z"/>
  <path fill="#88aa2a" d="M154 36c5 5 5 11 5 18l-1 14-2 1-2-6h3a1188 1188 0 0 0 0-12l-1-2v-3l-1-4-1-6z"/>
  <path fill="#729720" d="M121 162h1c0 6-2 8-5 12l-7 5h-3l-1-9c2 2 2 2 2 5v2l1-1 4-2v-2h3v-3l2-1 3-4v-2z"/>
  <path fill="#a0c13d" d="m75 141 1 3-4 5-1 3h-2v2l-5 15-2-1c3-10 7-19 13-27z"/>
  <path fill="#1a4812" d="M145 28h1c0 9-2 17-5 26h-1l-1-8 2-1 1-7c1-8 1-8 3-10z"/>
  <path fill="#c2da14" d="M90 74h3l-2 12-5-1-1-5 4-3 1-3z"/>
  <path fill="#1c5921" d="m63 191 2 1c8 3 19 1 27 0-5 5-16 4-22 4-4 0-4 0-7-2v-3z"/>
  <path fill="#bad50f" d="m69 117 3 1v2h3l-1 7-6-1z"/>
  <path fill="#56a791" d="M184 94h2v23l-2 1-1-11V97l1-3z"/>
  <path fill="#d0e444" d="M103 81h1v6l2 1-3 8h-3l-1 2c0-6 2-11 4-17z"/>
  <path fill="#64ac97" d="m43 58 3 1-3 4h-2l-1 3c-1 5-4 10-8 14 1-8 5-16 11-22z"/>
  <path fill="#cdde14" d="M122 59c-4 7-4 7-8 8h-3v-5l4-2 2-1h5z"/>
  <path fill="#194923" d="M119 170c0 4-1 7-3 10-4 3-8 5-13 6l9-8 7-8z"/>
  <path fill="#b5cd20" d="M120 115h1c0 6 0 12-2 18-2-2-3-3-3-6 0-4 2-8 4-12z"/>
  <path fill="#0e4c30" d="M135 138h2c0 4 0 7-2 10l-4 4h-2l2-6h2v-2l2-6z"/>
  <path fill="#8fb539" d="M142 107c2 4 2 6 2 10l-3 11-2 1 1-10-2-1 1-2c2-3 3-5 3-9z"/>
  <path fill="#cedd3a" d="M77 96h3l-1 4h-2l-1 4h2l6 4-2 3-2-2c-2-2-3-3-6-3l3-10z"/>
  <path fill="#031429" d="m145 83 1 5-2 2-5-1v-6h6z"/>
  <path fill="#98b41d" d="M157 52v11h-9l4-2 2-3-3-1v-2l6-3z"/>
  <path fill="#175c36" d="M128 152c2 5 0 9-2 13l-5 5 1-7 1-2 1-2 1-3 3-4z"/>
  <path fill="#69af8c" d="M140 149h3v2l-1 2-1 3v5l-4-1-1-5 4-6z"/>
  <path fill="#010f1a" d="M141 107c0 4 0 5-2 8h-4v-8h6z"/>
  <path fill="#051738" d="M115 70h4l-1 8h-6c1-6 1-6 3-8z"/>
  <path fill="#052126" d="M108 42h1l1 5 2-1c-1 7-1 7-3 9h-3v-7l2-6z"/>
  <path fill="#6aac90" d="M120 183c0 4-2 6-4 9l2 2-10 1 12-12z"/>
  <path fill="#093025" d="m114 116 3 1c-2 13-2 13-6 17v-2l2-9-2 1 1-5h2v-3z"/>
  <path fill="#c7da11" d="M84 98v6l-1 2-7-2 1-4 7-2z"/>
  <path fill="#5ca889" d="m170 60 3 1 2 5-7 6 2-12z"/>
  <path fill="#f1f5b6" d="M109 26h2l-6 9-2 3-5 5-1-3 2-1 1-3h2v-3l2-1 2-4h3v-2z"/>
  <path fill="#bce317" d="M90 148v3h-3l-2 6h-3l-2-3 2-1v-4l8-1z"/>
  <path fill="#dffa5c" d="m86 60 2 1v10l-2 9h-1l1-20z"/>
  <path fill="#97bc33" d="m100 175-7 2v8l-4 1a585 585 0 0 1 0-7l1-4h10z"/>
  <path fill="#b5c607" d="M92 166h6l1 5c-5 2-5 2-8 1l1-6z"/>
  <path fill="#154c1b" d="M88 100v10l-1 3v2h-3l-1 4h-2l5-13 1-3 1-3z"/>
  <path fill="#060923" d="M109 89h2l1 5h-2v2l-5-1v-5l4-1z"/>
  <path fill="#b2cf28" d="m144 72 8 3v5h-11v-2h8l1-1-2-1-3-1-1-3z"/>
  <path fill="#1d5422" d="M143 120h1c1 6-1 12-4 17l-3 1v-4h2v-2l1-3v-2l3-7z"/>
  <path fill="#01163f" d="M153 65v6l-4 1h-2l-1-4c2-3 3-3 7-3z"/>
  <path fill="#7e9f08" d="m109 167 4 7h-2l-1 3h-2l-1-7-3-1z"/>
  <path fill="#d3e6a9" d="M47 144h1c0 6-1 10-3 15l-2 1c-1-6 1-10 4-16z"/>
  <path fill="#6f9f14" d="m128 139 2 1-1 8h-3l-4 4-2-1 1-1 4-6 3-5z"/>
  <path fill="#1b501e" d="M154 85h1l-2 18h-2v3h-2l3-14 1-2 1-5z"/>
  <path fill="#65af95" d="m68 36-2 4-3 1v2l-10 5c2-4 4-6 8-8l2-2 5-2z"/>
  <path fill="#0e3736" d="m157 25 4 2 1 3-3 5c-2-2-4-4-4-7l2-3z"/>
  <path fill="#c5e32a" d="m72 148 1 2-1 2h6v2h-5l-2 7-3-4 1-5h2z"/>
  <path fill="#c3d418" d="m140 60 4 1 1 2-1 2h-2l-1 3h-1l-1 6h-2l1-6v-3l2-5z"/>
  <path fill="#152f06" d="M119 42h8l1 4c0 4 0 4-2 7h-3v-2l3-2v-6l-6 2v7h-2l1-10z"/>
  <path fill="#aebc2f" d="m111 31-1 4-1 3-1 2-3 1v-2l-2-1c4-7 4-7 8-7z"/>
  <path fill="#0e584c" d="M46 128v7c-2 4-4 7-9 9 1-4 3-7 6-11l2-3 1-2z"/>
  <path fill="#618006" d="M84 85h2v4l-1 3-2 5h-2v-4l1-3 2-5z"/>
  <path fill="#153612" d="M96 176h3l-1 2h-5l1 5 7-2-2 5h-5c-2-2-2-2-2-6s0-4 4-4z"/>
  <path fill="#a0ba3c" d="m95 159 1 3-3 4-1 3-7 5-2-1 2-2c4-3 7-7 10-12z"/>
  <path fill="#72a43c" d="M138 129h2l-1 5h-2v4h-2v2l-3 5-3-1 3-5h2v-3h2v-4h2v-3z"/>
  <path fill="#020c1a" d="m83 139 6 2-1 5-5-1-2-4h2v-2z"/>
  <path fill="#c5e268" d="m117 38 2 5-1 3v3l-1 2-3-1c0-5 1-8 3-12z"/>
  <path fill="#acbc17" d="M141 94h5v3l-4 1-1 4-4 1 1-2c2-3 3-4 3-7z"/>
  <path fill="#003636" d="M186 87c3 6 3 11 3 17l-2 1-1-12v-6z"/>
  <path fill="#a2ba22" d="M157 44v4h-2l-2 1h-3l-2 1-1 2c0-3 1-5 3-7l7-1z"/>
  <path fill="#1f3e45" d="m150 5 6 1 1 2h-3c-5 1-6 3-9 6l-2-2z"/>
  <path fill="#233906" d="m139 106-2 1c-3 2-3 2-3 4v6h5v1h-6c-2-2-2-2-2-5s0-5 2-7h6z"/>
  <path fill="#05333f" d="M128 81v8l-1 2v2h-3c-1-5 1-8 4-12z"/>
  <path fill="#96b512" d="M149 74h7c-1 7-1 7-3 9l-1 1-2-1 2-8-3-1z"/>
  <path fill="#05332c" d="M41 153h1l-1 17-2-1v-8l2-8z"/>
  <path fill="#aebf32" d="m103 93 1 2c2 2 2 2 5 2l4-1-1 5-6 1c-2-3-3-5-3-9z"/>
  <path fill="#c6d409" d="M133 86c3 4 3 5 4 9l-6 2z"/>
  <path fill="#1f3506" d="M105 47h1c0 6-1 12-4 17-2-4 0-7 1-11l1-3 1-3z"/>
  <path fill="#a0b917" d="M86 191v1a48 48 0 0 1-14 1l-4-2h18z"/>
  <path fill="#214d14" d="M97 72h1v7l-1 5-4 2 1-6 1-3 2-5z"/>
  <path fill="#085450" d="M72 73v7l3-1-1 7h-5l3-13z"/>
  <path fill="#c4d729" d="m121 35 1 3h6l1 3h-11v-3h2l1-3z"/>
  <path fill="#164443" d="m114 22-4 3-2 1-2 2-1 1-5 1v-2h3v-3c4-2 7-3 11-3z"/>
  <path fill="#143b12" d="m97 154 2 1-9 12-1-4 4-5 2-2 2-2z"/>
  <path fill="#a6c648" d="M109 61h1c0 7 0 7-2 10l-1 5-1 2v2h-2l2-8v-2l3-9z"/>
  <path fill="#6ebf9c" d="m134 186 3 2-5 2-3 1-6 1v-2c3-2 4-2 7-2h4v-2z"/>
  <path fill="#042f35" d="m57 168 2 1-1 8-3 2v-7l2-4z"/>
  <path fill="#031a34" d="M74 109h4v6l-5 1 1-7z"/>
  <path fill="#a8c436" d="M98 95h1v8c0 3 0 3-2 5l-2 1 3-14z"/>
  <path fill="#2b4747" d="M29 61h3v2h-3v2l-3 9h-3c1-5 3-9 6-13z"/>
  <path fill="#c5d440" d="m93 51 2 1-2 4h-2v2h5l-2 2h-3l-2 2c0-4 0-6 2-9z"/>
  <path fill="#19462a" d="M119 29h6l-3 4-1 2-5 5v-4h2l1-7z"/>
  <path fill="#93c33b" d="M94 187h5v2c-5 2-8 3-13 3l2-1v-2h6v-2z"/>
  <path fill="#91b42a" d="m55 142 6 1 5-1-3 6c-3 0-4-1-6-4l-2-2z"/>
  <path fill="#5fb995" d="m40 136-3 10-3-7 6-3z"/>
  <path fill="#133308" d="m110 122 1 2-2 4-2 3h-2v2h-2c1-5 3-8 7-11z"/>
  <path fill="#727a01" d="M98 124h2l-1 5h-6c1-5 1-5 5-5z"/>
  <path fill="#a6bc60" d="m95 59 6 1-3 12c-3-4-2-6-1-10l-2-3z"/>
  <path fill="#62b891" d="m78 29 4 1 4 5-3 2-5-5v-3z"/>
  <path fill="#46893c" d="m132 144 1 2h-2l-1 3c-1 3-2 4-5 6l1-6 3-1v-3l3-1z"/>
  <path fill="#d4e896" d="M80 82h1c0 6-1 11-4 17h-1c-1-6 2-11 4-17z"/>
  <path fill="#80a434" d="m78 177 1 2c-5 4-9 6-16 6l9-5 3-2 3-1z"/>
  <path fill="#8bac26" d="M107 118h3c-1 5-2 7-5 11v-6l2-5z"/>
  <path fill="#82a726" d="m145 80 6 1c0 6 0 6-2 9l-2-1v-3l-2-6z"/>
  <path fill="#074b4e" d="M166 65h3l-3 17h-1z"/>
  <path fill="#20403a" d="m59 29 1 3c-4 3-4 3-7 3v3l-3-1 9-8z"/>
  <path fill="#bfd116" d="M50 155h3l-2 9h-2z"/>
  <path fill="#05183a" d="M110 152h5v4h-2v2h-3v-6z"/>
  <path fill="#042d3b" d="M65 146h3l-3 9-2-5 2-4z"/>
  <path fill="#113a18" d="M76 136h2l-7 12-1-6h3v-2h2z"/>
  <path fill="#cae7a2" d="m59 130 2 3c-3 3-6 5-10 6l8-9z"/>
  <path fill="#849d19" d="M65 126h2v5l-7 4 5-9z"/>
  <path fill="#95b31f" d="M137 125h2l-1 7h-2v2h-2v-7l2 1 1-3z"/>
  <path fill="#062a38" d="M113 122v8c-2 3-2 3-5 4l1-4h2v-3c0-3 0-3 2-5z"/>
  <path fill="#9bae08" d="M98 123h3l2 5-2 3-8-1v-1h6l1-5-2-1z"/>
  <path fill="#043432" d="m98 78 3 1-3 8h-2z"/>
  <path fill="#0a230f" d="M147 63h7v7h-1v-5l-7 3 1-5z"/>
  <path fill="#20400c" d="M110 33h1v8l-3 1-1 4v-5l1-3 1-3 1-2z"/>
  <path fill="#729747" d="M102 181h2c0 5 0 5-3 6h-8l1-2h2c3 0 3 0 5-2l1-2z"/>
  <path fill="#0a2e12" d="M103 171h2v7l-6-2 4-5z"/>
  <path fill="#95b236" d="M109 148c5 0 8 0 12 2l-1 2h-4l-3-1h-4v-3z"/>
  <path fill="#adcf3c" d="m71 116 9 2-2 5-2-2-4-1-1-4z"/>
  <path fill="#053533" d="m97 88-1 8-2 1-1-4v-3l4-2z"/>
  <path fill="#1c4209" d="m123 80 1 9-1 2v2l-3 1 3-14z"/>
  <path fill="#a7c40e" d="m145 54 9 4v2h-5l1-3h-6l1-3z"/>
  <path fill="#1a592f" d="m137 22-2 1-9 5 1-5c3-2 6-1 10-1z"/>
  <path fill="#a0b114" d="M109 161h8l-3 3h-5v-3zm-1 3v3l-2 1v-3z"/>
  <path fill="#a1b743" d="M120 115h1l-1 10-4 1 1-4 1-3 2-4z"/>
  <path fill="#afc970" d="M75 96h1l-4 14-2-1 1-2 4-11z"/>
  <path fill="#94ba8a" d="m120 20-1 4-3 2v-2h-5c3-2 5-4 9-4z"/>
  <path fill="#063935" d="m119 17 2 1-1 4v-2l-2 1-7 1c2-3 5-5 8-5z"/>
  <path fill="#0f4746" d="m121 180-2 5-5 4c0-4 0-4 2-7l5-2z"/>
  <path fill="#0a4630" d="M124 162h1v7l-3 2-1 4h-3c1-5 1-5 4-6l2-1v-6z"/>
  <path fill="#b5da1d" d="m71 164 5 1v3h-3l-1 3-3 1c0-3 0-3 2-5l1-1-1-2z"/>
  <path fill="#869a26" d="m51 148 1 2h5l1 5-2 2v-5h-5v-4z"/>
  <path fill="#132a03" d="M90 139h1v6c-2 2-2 2-5 2l-5-1 1-3 2 2 4 1 2-7z"/>
  <path fill="#0e2a07" d="M140 80h5c2 2 2 2 2 5v3l-1-2-3-3h-4l1-3z"/>
  <path fill="#6ab29d" d="m36 69 3 1-2 4-2 2-3 4 4-11z"/>
  <path fill="#294108" d="m120 68-1 2-2 1c-3 1-3 1-4 4l-1 2h-1l1-7c3-2 4-2 8-2z"/>
  <path fill="#051226" d="M92 62h3v6h-4v-5z"/>
  <path fill="#eef6d8" d="m95 41 3 1v2h-3v3h-2v2h-2c0-4 1-6 4-8z"/>
  <path fill="#d6e57f" d="M114 26h2c-3 5-3 5-7 6h-2c3-6 3-6 7-6z"/>
  <path fill="#043f53" d="M123 22c2 2 2 2 2 5v2l-5-1z"/>
  <path fill="#0f4525" d="M60 183h3v8l-4-2 1-6z"/>
  <path fill="#b1d51e" d="m88 183 1 3 4-1 1 4h-6v-6z"/>
  <path fill="#265027" d="M61 171v6l5-1-1 2h-7v-6l3-1z"/>
  <path fill="#6bbf9f" d="m31 136 1 2 3-1 1 9c-4-3-5-5-5-10z"/>
  <path fill="#061121" d="m127 127 3 1v4l-4 1-1-4z"/>
  <path fill="#abc45d" d="M142 107c2 3 3 4 2 8l-4 4-2-1 1-2c2-3 3-5 3-9z"/>
  <path fill="#b2c830" d="m135 103 2 1-2 1c-2 1-3 2-4 5l-1-5 5-2z"/>
  <path fill="#b2cf18" d="m87 84 1 2h2l-1 7h-2l-1 2z"/>
  <path fill="#12390e" d="M108 58h2l-1 4v3l-3 5v-5l1-3 1-4z"/>
  <path fill="#c2da0e" d="m119 58 3 1-4 5-4-1z"/>
  <path fill="#77bba1" d="m113 191 1 2 4 1-10 1c2-3 2-3 5-4z"/>
  <path fill="#064539" d="M131 191v2l-10 2v-2c4-2 6-2 10-2z"/>
  <path fill="#02143f" d="M96 179h3l-1 5h-4l2-5z"/>
  <path fill="#c4d629" d="m62 168 2 1v3h3l-1 3h-4v-7z"/>
  <path fill="#c4d622" d="m108 143 4 4-6 2v-4h2v-2z"/>
  <path fill="#cae82b" d="M78 139v7l-5 2 5-9z"/>
  <path fill="#06343f" d="M85 117h2v5l-5 1 3-6z"/>
  <path fill="#c9e890" d="M88 52c2 3 2 4 2 8l-1 3-3-3 2-8z"/>
  <path fill="#20403f" d="M37 49v7l-2 2-3-2 5-7z"/>
  <path fill="#63ae95" d="M53 49v2l-3 3-2 2-2 1-2-1 3-3 1-2c2-2 2-2 5-2z"/>
  <path fill="#85ae49" d="M147 27h2l-1 6-1 4-1 3-2 1 1-6v-4l2-4z"/>
  <path fill="#69b193" d="m77 32-2 1v3h-6v-2c3-2 4-2 8-2z"/>
  <path fill="#1b4215" d="m81 171 3 1c-3 5-3 5-6 6h-2v-2l4-1z"/>
  <path fill="#bbd753" d="m79 135 3 1v2h-2v5l-2-3-2 1 3-6z"/>
  <path fill="#214709" d="m102 133 1 4-3 5-3 1 5-10z"/>
  <path fill="#1b3203" d="M125 125h5l-4 4h-2v5h-1c0-6 0-6 2-9z"/>
  <path fill="#6f9533" d="M144 110h3l-3 10v-10z"/>
  <path fill="#234a0a" d="M119 94v8l-4 4 1-5 1-3 2-4z"/>
  <path fill="#0b3e42" d="M74 91c1 4 0 6-1 10h-2l1-8h2v-2z"/>
  <path fill="#4daa90" d="m67 83 2 3-4 4-1-5 3-2z"/>
  <path fill="#061c23" d="M114 71h1v6l3 1h-6l2-7z"/>
  <path fill="#97af3d" d="M88 63h1v7h7v2h-8v-9z"/>
  <path fill="#26494e" d="m137 6 2 4-5 4-5-1v-1h3l3-1 2-5z"/>
  <path fill="#99bb28" d="M100 168h5l-5 6v-6z"/>
  <path fill="#a2ba3f" d="m101 151 1 4-4 4-2-1 5-7z"/>
  <path fill="#244f0a" d="M96 143v4c-1 4-3 4-6 6l6-10z"/>
  <path fill="#dde76f" d="m54 139 2 1-4 8-2-3h2v-2l2-4z"/>
  <path fill="#9dbd27" d="m100 134 1 2-2 4-2 3v-8l3-1z"/>
  <path fill="#01291f" d="M105 131h2c-1 4-2 7-6 9l2-7h2v-2z"/>
  <path fill="#c7d621" d="M86 126h2l-1 8 2 1-5-1z"/>
  <path fill="#244a0a" d="m80 119 1 2-2 4-1 2-1 2h-2l5-10z"/>
  <path fill="#285717" d="M85 108v6l-2 5h-2l4-11z"/>
  <path fill="#a9d374" d="m81 110 2 1c-1 6-1 6-3 8l-2-2 3-7z"/>
  <path fill="#afd245" d="M129 92h1l-1 9-2 2v-4l1-3 1-4z"/>
  <path fill="#aed63c" d="M94 78v6h-2l-1 4-1-2 4-8z"/>
  <path fill="#1a3d39" d="m22 75 2 1-2 9-2-1z"/>
  <path fill="#4e9880" d="m170 60 3 1-1 4h-2l-1 4c-2-3 0-6 1-9z"/>
  <path fill="#b8ba0c" d="m101 47 1 6-3-1v-2h-2v-2l4-1z"/>
  <path fill="#90b23f" d="m154 36 4 5v7l-1-2-2-4-1-6z"/>
  <path fill="#365d5f" d="m122 12-1 2-4-1v2h-6c2-4 7-3 11-3z"/>
  <path fill="#9cbe42" d="m62 185 4 1v5h-3l-1-6z"/>
  <path fill="#6cb291" d="m131 169 4 1-6 5 2-6z"/>
  <path fill="#7abb9c" d="M137 154h2l1 7-3-1-1-5z"/>
  <path fill="#bad231" d="m69 152 1 2h3l-2 7-3-4 1-5z"/>
  <path fill="#bcc812" d="M102 152h4l1 7h-2l-3-7z"/>
  <path fill="#03073b" d="m84 140 5 1v3h-5v-4z"/>
  <path fill="#84ac1a" d="m131 136 2 1-2 6-3-6 3-1z"/>
  <path fill="#88a22b" d="M127 124h7l-2 6-1-2-4-4z"/>
  <path fill="#9ebd0a" d="M131 119h2v2l4 1h-2v2h-4v-5z"/>
  <path fill="#d4eb5c" d="m67 116 3 1-3 8-1-8z"/>
  <path fill="#113e0e" d="M127 90h2c-1 7-1 7-3 10l1-10z"/>
  <path fill="#1a4933" d="M78 84h2l-3 9h-1c0-6 0-6 2-9z"/>
  <path fill="#b9d43c" d="M103 81h1v6l2 1-2 2-3-1z"/>
  <path fill="#c4e357" d="M96 70v6l-1 2h-1v-5l-3-1h5v-2z"/>
  <path fill="#ced61b" d="m95 52 1 3-1 2 3 1h-7l2-4 2-2z"/>
  <path fill="#1b413f" d="m151 19 6 4v3h-2v-2h-2l-2-5z"/>
  <path fill="#02343c" d="m151 182 2 1-3 6h-2l-1-3 3-1 1-3z"/>
  <path fill="#9ec83c" d="M80 164c-1 3-2 4-5 5l-2 1v-2h3v-3l4-1z"/>
  <path fill="#a8c136" d="m71 157 3 7 4 1-7-1v-7z"/>
  <path fill="#3d7e2e" d="M124 155c2 4 0 7-1 11h-1v-7l2-4z"/>
  <path fill="#174d1a" d="m89 153 1 4-4 5-2-1 5-8z"/>
  <path fill="#9fd22c" d="M87 151h3l-2 5-3 1 2-6z"/>
  <path fill="#032547" d="M100 143h2l-1 5h-4l1-3h2v-2z"/>
  <path fill="#0b5849" d="m62 104 2 3c-1 3-2 4-4 5l-2 1 4-9z"/>
  <path fill="#90b335" d="M114 102h2l-3 10h-1v-4l1-3 1-3z"/>
  <path fill="#030f40" d="m141 84 4 1-1 4h-3v-5z"/>
  <path fill="#013b35" d="m170 57 5 2 1 4h-3c-3-3-3-3-3-6z"/>
  <path fill="#e3ef23" d="m114 56 4 1v3l-5 1 1-5z"/>
  <path fill="#85a13d" d="m127 50 2 1-1 3h-7l-2-2h7z"/>
  <path fill="#1b4645" d="m166 38 3 4 1 3-2 2-2-9z"/>
  <path fill="#b7c31e" d="M148 32h2l1 5-4 3z"/>
</svg>